# xmcd
#
# Track frame offsets: 
#        150
#        16069
#        37145
#        57273
#        72666
#        88316
#        103258
#        121697
#        136639
#        156831
#        177848
#        205210
#
# Disc length: 2952 seconds
#
# Revision: 1
# Processed by: cddbd v1.5.2PL0 Copyright (c) Steve Scherf et al.
# Submitted via: ExactAudioCopy v1.0b1
#
DISCID=a50b860c
DTITLE=Ronni Le Tekro - Extra Strong String
DYEAR=2002
DGENRE=Instrumental Rock
TTITLE0=Shuffle Off To Buffalo
TTITLE1=Dig It
TTITLE2=Half Of The Time
TTITLE3=A Song For While I'm Away
TTITLE4=Tracks In The Snow
TTITLE5=I Remember
TTITLE6=Welcome To My Nightmare
TTITLE7=Spend The Night
TTITLE8=Nobody Loves An Iceberg
TTITLE9=Can't Stop Falling
TTITLE10=The Brooklyn Alphabet
TTITLE11=Publicity
EXTD=YEAR: 2002
EXTT0=
EXTT1=
EXTT2=
EXTT3=
EXTT4=
EXTT5=
EXTT6=
EXTT7=
EXTT8=
EXTT9=
EXTT10=
EXTT11=
PLAYORDER=
